# xmcd CD database file
#
# Track frame offsets:
#	150
#	13319
#	27122
#	33556
#	57253
#	79048
#	113430
#	137210
#	162194
#
# Disc length: 2642 seconds
#
# Revision: 0
# Processed by: cddbd v1.5.1PL2 Copyright (c) Steve Scherf et al.
# Submitted via: CDex 1.70beta1
#
DISCID=6b0a5009
DTITLE=Blue Star - Tranquility
DYEAR=2002
DGENRE=New Age
TTITLE0=The Five Tibetans
TTITLE1=Tibeter Two
TTITLE2=Suite For The Tibetans
TTITLE3=Tune In and Breathe
TTITLE4=Silverline
TTITLE5=The Pink Piano
TTITLE6=Get Your Wings Out
TTITLE7=Dawatschen
TTITLE8=Greetings From The Top Of The World
EXTD=YEAR: 2002
EXTT0=
EXTT1=
EXTT2=
EXTT3=
EXTT4=
EXTT5=
EXTT6=
EXTT7=
EXTT8=
PLAYORDER=
